<svg width="40" height="40" viewBox="0 0 40 40" fill="none" xmlns="http://www.w3.org/2000/svg">
<path d="M31.6641 15L25 0H21.6641L28.3281 15H31.6641ZM18.3359 0H15L8.33594 15H11.6719L18.3359 0ZM3.33594 36.6641C3.33594 38.5 4.82813 40 6.67188 40H33.3359C35.1719 40 36.6719 38.5078 36.6719 36.6641L38.3359 21.6641H1.66406L3.33594 36.6641ZM28.3359 25H31.6719L30 36.6641H26.6641L28.3359 25ZM18.3359 25H21.6719V36.6641H18.3359V25ZM11.6641 25L13.3281 36.6641H10L8.33594 25H11.6641ZM38.3359 16.6641H1.66406C0.742187 16.6641 0 17.4141 0 18.3359V20H40V18.3359C40 17.4141 39.2578 16.6641 38.3359 16.6641Z" fill="white"/>
</svg>